<svg xmlns="http://www.w3.org/2000/svg" xmlns:xlink="http://www.w3.org/1999/xlink" width="512" zoomAndPan="magnify" viewBox="0 0 384 383.999986" height="512" preserveAspectRatio="xMidYMid meet" version="1.0"><path fill="#0d2e1e" d="M 339.378906 96.960938 L 339.378906 96.945312 L 276.992188 96.945312 L 276.992188 220.894531 C 276.992188 275.519531 274.15625 296.320312 265.238281 314.257812 C 256.738281 331.792969 243.355469 343.214844 215.800781 356.257812 L 273.742188 384 C 301.292969 370.144531 314.660156 357.503906 324.796875 337.519531 C 335.730469 316.734375 339.378906 292.671875 339.378906 242.527344 Z M 339.378906 96.960938 " fill-opacity="1" fill-rule="nonzero"/><path fill="#0d2e1e" d="M 240.105469 290.65625 L 240.105469 0 L 177.714844 0 L 177.714844 95.742188 C 168.394531 93.296875 160.695312 92.480469 150.578125 92.480469 C 85.335938 92.480469 43.199219 134.0625 43.199219 198.078125 C 43.199219 264.542969 82.902344 299.199219 159.078125 299.199219 C 184.597656 299.214844 208.101562 296.769531 240.105469 290.65625 Z M 106.804688 196.863281 C 106.804688 162.609375 125.023438 143.039062 156.644531 143.039062 L 156.582031 143.039062 C 157.027344 143.007812 157.460938 143.007812 157.894531 143.007812 C 164.984375 143.007812 171.789062 144.207031 177.695312 146.289062 L 177.695312 246.992188 C 168.796875 248.222656 163.113281 248.625 156.226562 248.625 C 124.238281 248.640625 106.804688 230.304688 106.804688 196.863281 Z M 106.804688 196.863281 " fill-opacity="1" fill-rule="nonzero"/><path fill="#0d2e1e" d="M 276.992188 0.335938 L 339.378906 0.335938 L 339.378906 64.753906 L 276.992188 64.753906 Z M 276.992188 0.335938 " fill-opacity="1" fill-rule="nonzero"/></svg>