<svg xmlns="http://www.w3.org/2000/svg" xmlns:xlink="http://www.w3.org/1999/xlink" width="512" zoomAndPan="magnify" viewBox="0 0 384 383.999986" height="512" preserveAspectRatio="xMidYMid meet" version="1.0"><defs><clipPath id="fa7a153cfd"><path d="M 189 0 L 310.257812 0 L 310.257812 266 L 189 266 Z M 189 0 " clip-rule="nonzero"/></clipPath><clipPath id="a12b65579b"><path d="M 74.007812 0 L 193 0 L 193 266 L 74.007812 266 Z M 74.007812 0 " clip-rule="nonzero"/></clipPath><clipPath id="8b99997265"><path d="M 190 217 L 310.257812 217 L 310.257812 384 L 190 384 Z M 190 217 " clip-rule="nonzero"/></clipPath><clipPath id="242cd9fb04"><path d="M 74.007812 217 L 193 217 L 193 384 L 74.007812 384 Z M 74.007812 217 " clip-rule="nonzero"/></clipPath><clipPath id="9f8daaa43d"><path d="M 192 141 L 310.257812 141 L 310.257812 266 L 192 266 Z M 192 141 " clip-rule="nonzero"/></clipPath><clipPath id="672cd941d3"><path d="M 74.007812 141 L 193 141 L 193 266 L 74.007812 266 Z M 74.007812 141 " clip-rule="nonzero"/></clipPath></defs><g clip-path="url(#fa7a153cfd)"><path fill="#343434" d="M 192.09375 0 L 189.523438 8.75 L 189.523438 262.664062 L 192.09375 265.234375 L 310.09375 195.566406 Z M 192.09375 0 " fill-opacity="1" fill-rule="nonzero"/></g><g clip-path="url(#a12b65579b)"><path fill="#8c8c8c" d="M 192.09375 0 L 74.097656 195.566406 L 192.09375 265.234375 Z M 192.09375 0 " fill-opacity="1" fill-rule="nonzero"/></g><g clip-path="url(#8b99997265)"><path fill="#3c3c3b" d="M 192.09375 287.554688 L 190.648438 289.320312 L 190.648438 379.773438 L 192.09375 384.007812 L 310.164062 217.917969 Z M 192.09375 287.554688 " fill-opacity="1" fill-rule="nonzero"/></g><g clip-path="url(#242cd9fb04)"><path fill="#8c8c8c" d="M 192.09375 384.007812 L 192.09375 287.554688 L 74.097656 217.917969 Z M 192.09375 384.007812 " fill-opacity="1" fill-rule="nonzero"/></g><g clip-path="url(#9f8daaa43d)"><path fill="#141414" d="M 192.09375 265.234375 L 310.09375 195.566406 L 192.09375 141.996094 Z M 192.09375 265.234375 " fill-opacity="1" fill-rule="nonzero"/></g><g clip-path="url(#672cd941d3)"><path fill="#393939" d="M 74.101562 195.566406 L 192.09375 265.234375 L 192.09375 141.996094 Z M 74.101562 195.566406 " fill-opacity="1" fill-rule="nonzero"/></g></svg>