<svg xmlns="http://www.w3.org/2000/svg" xmlns:xlink="http://www.w3.org/1999/xlink" width="512" zoomAndPan="magnify" viewBox="0 0 384 383.999986" height="512" preserveAspectRatio="xMidYMid meet" version="1.0"><defs><clipPath id="352ec13ce8"><path d="M 54.109375 104 L 198 104 L 198 309 L 54.109375 309 Z M 54.109375 104 " clip-rule="nonzero"/></clipPath><clipPath id="86a51da09d"><path d="M 54.109375 82 L 330.109375 82 L 330.109375 384 L 54.109375 384 Z M 54.109375 82 " clip-rule="nonzero"/></clipPath><clipPath id="617f8827e2"><path d="M 54.109375 2 L 163 2 L 163 309 L 54.109375 309 Z M 54.109375 2 " clip-rule="nonzero"/></clipPath></defs><path fill="#ffa000" d="M 235.910156 140.21875 L 197.683594 175.757812 L 162.210938 104.265625 L 180.566406 63.144531 C 185.34375 54.796875 192.789062 54.894531 197.445312 63.144531 Z M 235.910156 140.21875 " fill-opacity="1" fill-rule="nonzero"/><g clip-path="url(#352ec13ce8)"><path fill="#f57f17" d="M 162.210938 104.265625 L 197.683594 175.757812 L 54.820312 308.546875 Z M 162.210938 104.265625 " fill-opacity="1" fill-rule="nonzero"/></g><g clip-path="url(#86a51da09d)"><path fill="#ffca28" d="M 277.71875 85.898438 C 284.546875 79.339844 291.613281 81.582031 293.414062 90.871094 L 330.605469 306.78125 L 207.339844 380.71875 C 203.042969 383.105469 191.582031 384.132812 191.582031 384.132812 C 191.582031 384.132812 181.152344 382.890625 177.179688 380.554688 L 54.820312 308.546875 Z M 277.71875 85.898438 " fill-opacity="1" fill-rule="nonzero"/></g><g clip-path="url(#617f8827e2)"><path fill="#ffa000" d="M 162.210938 104.265625 L 54.832031 308.546875 L 102.65625 9.992188 C 104.421875 0.691406 109.722656 -0.203125 114.449219 8.003906 Z M 162.210938 104.265625 " fill-opacity="1" fill-rule="nonzero"/></g></svg>