<svg xmlns="http://www.w3.org/2000/svg" xmlns:xlink="http://www.w3.org/1999/xlink" width="512" zoomAndPan="magnify" viewBox="0 0 384 383.999986" height="512" preserveAspectRatio="xMidYMid meet" version="1.0"><defs><clipPath id="fa68617f69"><path d="M 1 216 L 159 216 L 159 292.863281 L 1 292.863281 Z M 1 216 " clip-rule="nonzero"/></clipPath></defs><g clip-path="url(#fa68617f69)"><path fill="#00618a" d="M 1.394531 275.429688 L 13.953125 275.429688 L 13.953125 225.859375 L 33.394531 269.089844 C 35.6875 274.300781 38.832031 276.171875 44.988281 276.171875 C 51.144531 276.171875 54.164062 274.320312 56.460938 269.089844 L 75.90625 225.859375 L 75.90625 275.449219 L 88.464844 275.449219 L 88.464844 225.941406 C 88.464844 221.113281 86.53125 218.777344 82.546875 217.570312 C 73.007812 214.59375 66.605469 217.167969 63.710938 223.609375 L 44.632812 266.273438 L 26.152344 223.589844 C 23.375 217.152344 16.855469 214.574219 7.3125 217.550781 C 3.328125 218.761719 1.394531 221.097656 1.394531 225.925781 Z M 98.90625 235.070312 L 111.460938 235.070312 L 111.460938 262.390625 C 111.34375 263.875 111.9375 267.359375 118.816406 267.46875 C 122.328125 267.523438 145.90625 267.46875 146.125 267.46875 L 146.125 234.933594 L 158.710938 234.933594 C 158.765625 234.933594 158.695312 279.292969 158.699219 279.484375 C 158.765625 290.421875 145.121094 292.800781 138.832031 292.984375 L 99.179688 292.984375 L 99.179688 284.535156 L 138.902344 284.53125 C 146.984375 283.675781 146.035156 279.660156 146.035156 278.308594 L 146.035156 275.015625 L 119.339844 275.015625 C 106.921875 274.902344 99.015625 269.480469 98.917969 263.246094 C 98.90625 262.6875 99.183594 235.335938 98.910156 235.066406 Z M 98.90625 235.070312 " fill-opacity="1" fill-rule="nonzero"/></g><path fill="#e48e00" d="M 168.390625 275.429688 L 204.496094 275.429688 C 208.722656 275.429688 212.832031 274.546875 216.09375 273.015625 C 221.527344 270.519531 224.183594 267.140625 224.183594 262.710938 L 224.183594 253.535156 C 224.183594 249.914062 221.164062 246.53125 215.25 244.277344 C 212.109375 243.070312 208.246094 242.425781 204.503906 242.425781 L 189.285156 242.425781 C 184.214844 242.425781 181.800781 240.898438 181.195312 237.515625 C 181.074219 237.117188 181.074219 236.773438 181.074219 236.390625 L 181.074219 230.675781 C 181.074219 230.355469 181.074219 230.03125 181.195312 229.628906 C 181.800781 227.050781 183.128906 226.324219 187.597656 225.90625 C 187.957031 225.90625 188.441406 225.824219 188.804688 225.824219 L 224.671875 225.824219 L 224.671875 217.453125 L 189.410156 217.453125 C 184.335938 217.453125 181.679688 217.777344 179.265625 218.5 C 171.765625 220.835938 168.503906 224.558594 168.503906 230.996094 L 168.503906 238.324219 C 168.503906 243.957031 174.910156 248.789062 185.652344 249.914062 C 186.863281 249.996094 188.070312 250.074219 189.273438 250.074219 L 202.316406 250.074219 C 202.800781 250.074219 203.285156 250.074219 203.648438 250.15625 C 207.628906 250.476562 209.324219 251.203125 210.53125 252.648438 C 211.273438 253.394531 211.496094 254.101562 211.496094 254.882812 L 211.496094 262.210938 C 211.496094 263.09375 210.894531 264.222656 209.6875 265.1875 C 208.601562 266.15625 206.789062 266.796875 204.371094 266.957031 C 203.886719 266.957031 203.527344 267.039062 203.046875 267.039062 L 168.386719 267.039062 L 168.386719 275.410156 Z M 302.527344 260.863281 C 302.527344 269.476562 308.929688 274.304688 321.851562 275.269531 C 323.054688 275.363281 324.261719 275.417969 325.472656 275.429688 L 358.199219 275.429688 L 358.199219 267.058594 L 325.230469 267.058594 C 317.863281 267.058594 315.085938 265.207031 315.085938 260.78125 L 315.085938 217.46875 L 302.527344 217.46875 Z M 232.195312 261.296875 L 232.195312 231.453125 C 232.195312 223.871094 237.519531 219.273438 248.046875 217.820312 C 249.171875 217.660156 250.300781 217.578125 251.4375 217.578125 L 275.277344 217.578125 C 276.453125 217.578125 277.621094 217.660156 278.785156 217.820312 C 289.316406 219.273438 294.636719 223.871094 294.636719 231.453125 L 294.636719 261.296875 C 294.636719 267.449219 292.375 270.742188 287.164062 272.886719 L 299.535156 284.054688 L 284.953125 284.054688 L 274.945312 275.019531 L 264.871094 275.65625 L 251.4375 275.65625 C 249.140625 275.65625 246.71875 275.335938 244.054688 274.609375 C 236.050781 272.429688 232.199219 268.234375 232.199219 261.296875 Z M 245.753906 260.554688 C 245.753906 260.957031 245.875 261.359375 245.996094 261.84375 C 246.738281 265.3125 249.988281 267.25 254.929688 267.25 L 266.339844 267.25 L 255.859375 257.789062 L 270.441406 257.789062 L 279.5625 266.039062 C 281.246094 265.140625 282.355469 263.769531 282.726562 262.007812 C 282.847656 261.605469 282.847656 261.199219 282.847656 260.796875 L 282.847656 232.179688 C 282.847656 231.859375 282.847656 231.4375 282.726562 231.050781 C 281.984375 227.828125 278.734375 225.96875 273.894531 225.96875 L 254.964844 225.96875 C 249.378906 225.96875 245.769531 228.390625 245.769531 232.179688 L 245.769531 260.574219 Z M 245.753906 260.554688 " fill-opacity="1" fill-rule="nonzero"/><path fill="#00618a" d="M 369.242188 203.582031 C 361.519531 203.375 355.621094 204.089844 350.582031 206.214844 C 349.148438 206.820312 346.863281 206.835938 346.628906 208.632812 C 347.417969 209.457031 347.542969 210.6875 348.164062 211.703125 C 349.371094 213.652344 351.40625 216.261719 353.214844 217.628906 C 355.195312 219.125 357.238281 220.722656 359.363281 222.019531 C 363.140625 224.324219 367.359375 225.640625 370.996094 227.945312 C 373.140625 229.304688 375.269531 231.019531 377.363281 232.554688 C 378.394531 233.316406 379.09375 234.496094 380.433594 234.96875 L 380.433594 234.75 C 379.726562 233.851562 379.546875 232.613281 378.898438 231.679688 L 376.046875 228.824219 C 373.253906 225.101562 369.714844 221.871094 365.949219 219.167969 C 362.945312 217.011719 356.222656 214.101562 354.972656 210.605469 L 354.75 210.386719 C 356.878906 210.144531 359.375 209.375 361.339844 208.851562 C 364.640625 207.964844 367.589844 208.191406 371 207.3125 L 375.613281 205.996094 L 375.613281 205.117188 C 373.886719 203.351562 372.660156 201.011719 370.78125 199.410156 C 365.867188 195.222656 360.5 191.046875 354.976562 187.554688 C 351.914062 185.621094 348.128906 184.367188 344.878906 182.726562 C 343.789062 182.175781 341.867188 181.890625 341.148438 180.96875 C 339.445312 178.796875 338.515625 176.039062 337.199219 173.523438 C 334.445312 168.21875 331.738281 162.425781 329.296875 156.84375 C 327.628906 153.039062 326.539062 149.285156 324.464844 145.867188 C 314.5 129.480469 303.769531 119.59375 287.148438 109.875 C 283.613281 107.808594 279.355469 106.988281 274.855469 105.921875 L 267.609375 105.484375 C 266.136719 104.867188 264.601562 103.0625 263.21875 102.1875 C 257.710938 98.707031 243.589844 91.144531 239.511719 101.070312 C 236.9375 107.347656 243.359375 113.472656 245.65625 116.65625 C 247.269531 118.890625 249.335938 121.390625 250.484375 123.902344 C 251.242188 125.550781 251.375 127.203125 252.023438 128.949219 C 253.617188 133.230469 255.007812 137.925781 257.070312 141.898438 C 258.113281 143.910156 259.265625 146.027344 260.585938 147.824219 C 261.394531 148.929688 262.78125 149.414062 263 151.121094 C 261.644531 153.019531 261.566406 155.960938 260.800781 158.363281 C 257.371094 169.179688 258.664062 182.625 263.65625 190.632812 C 265.1875 193.085938 268.792969 198.359375 273.753906 196.335938 C 278.089844 194.570312 277.105469 189.097656 278.363281 184.265625 C 278.644531 183.167969 278.472656 182.367188 279.023438 181.632812 L 279.023438 181.851562 L 282.976562 189.753906 C 285.898438 194.460938 291.089844 199.382812 295.488281 202.707031 C 297.765625 204.425781 299.582031 207.40625 302.511719 208.414062 L 302.511719 208.191406 L 302.292969 208.191406 C 301.722656 207.300781 300.828125 206.933594 300.097656 206.21875 C 298.378906 204.535156 296.464844 202.441406 295.046875 200.511719 C 291.042969 195.082031 287.511719 189.140625 284.289062 182.953125 C 282.753906 180 281.414062 176.742188 280.121094 173.734375 C 279.621094 172.574219 279.628906 170.824219 278.585938 170.222656 C 277.164062 172.425781 275.074219 174.207031 273.976562 176.808594 C 272.21875 180.964844 271.992188 186.035156 271.339844 191.296875 C 270.957031 191.433594 271.128906 191.339844 270.902344 191.515625 C 267.84375 190.777344 266.769531 187.628906 265.632812 184.929688 C 262.761719 178.101562 262.226562 167.109375 264.753906 159.25 C 265.40625 157.21875 268.367188 150.8125 267.167969 148.933594 C 266.597656 147.058594 264.710938 145.957031 263.65625 144.542969 C 262.355469 142.773438 261.046875 140.4375 260.144531 138.394531 C 257.792969 133.074219 256.695312 127.097656 254.21875 121.714844 C 253.035156 119.140625 251.035156 116.539062 249.390625 114.269531 C 247.570312 111.738281 245.53125 109.871094 244.121094 106.824219 C 243.621094 105.734375 242.9375 103.996094 243.683594 102.875 C 243.753906 102.542969 243.910156 102.261719 244.148438 102.023438 C 244.386719 101.785156 244.671875 101.628906 245 101.554688 C 246.273438 100.574219 249.820312 101.882812 251.148438 102.433594 C 254.664062 103.898438 257.605469 105.289062 260.589844 107.265625 C 262.019531 108.195312 263.46875 110.046875 265.195312 110.558594 L 267.167969 110.558594 C 270.261719 111.269531 273.722656 110.78125 276.605469 111.65625 C 281.710938 113.207031 286.28125 115.621094 290.4375 118.242188 C 303.089844 126.230469 313.433594 137.601562 320.511719 151.183594 C 321.652344 153.367188 322.140625 155.453125 323.144531 157.769531 C 325.167969 162.421875 327.714844 167.246094 329.730469 171.816406 C 331.742188 176.375 333.695312 180.972656 336.535156 184.765625 C 338.027344 186.757812 343.796875 187.828125 346.414062 188.933594 C 348.25 189.710938 351.257812 190.519531 353 191.566406 C 356.324219 193.570312 359.542969 195.960938 362.660156 198.15625 C 364.21875 199.253906 369.007812 201.660156 369.246094 203.640625 Z M 369.242188 203.582031 " fill-opacity="1" fill-rule="nonzero"/><path fill="#00618a" d="M 271.128906 119.957031 C 269.515625 119.925781 268.378906 120.132812 267.175781 120.394531 L 267.175781 120.617188 L 267.394531 120.617188 C 268.160156 122.195312 269.515625 123.207031 270.464844 124.566406 L 272.664062 129.175781 L 272.882812 128.957031 C 274.242188 127.996094 274.863281 126.464844 274.855469 124.125 C 274.308594 123.554688 274.230469 122.835938 273.757812 122.148438 C 273.128906 121.238281 271.894531 120.71875 271.125 119.953125 Z M 271.128906 119.957031 " fill-opacity="1" fill-rule="evenodd"/><path fill="#e48e00" d="M 364.101562 266.820312 C 364.101562 272.347656 368.472656 276.074219 373.359375 276.074219 C 378.242188 276.074219 382.613281 272.347656 382.613281 266.820312 C 382.613281 261.292969 378.242188 257.566406 373.359375 257.566406 C 368.472656 257.566406 364.101562 261.292969 364.101562 266.820312 Z M 380.539062 266.820312 C 380.539062 271.015625 377.332031 274.152344 373.355469 274.152344 C 369.332031 274.152344 366.167969 271.015625 366.167969 266.820312 C 366.167969 262.625 369.328125 259.492188 373.355469 259.492188 C 377.328125 259.492188 380.539062 262.625 380.539062 266.820312 Z M 375.847656 272.101562 L 377.921875 272.101562 L 374.886719 267.464844 C 376.515625 267.292969 377.746094 266.5 377.746094 264.578125 C 377.746094 262.429688 376.386719 261.542969 373.773438 261.542969 L 369.652344 261.542969 L 369.652344 272.105469 L 371.429688 272.105469 L 371.429688 267.539062 L 373.082031 267.539062 L 375.847656 272.105469 Z M 371.429688 266.054688 L 371.429688 263.019531 L 373.476562 263.019531 C 374.539062 263.019531 375.824219 263.21875 375.824219 264.453125 C 375.824219 265.933594 374.664062 266.058594 373.328125 266.058594 L 371.429688 266.058594 Z M 371.429688 266.054688 " fill-opacity="1" fill-rule="evenodd"/></svg>